<mxfile host="app.diagrams.net" modified="2023-12-04T20:14:32.244Z" agent="Mozilla/5.0 (Windows NT 10.0; Win64; x64) AppleWebKit/537.36 (KHTML, like Gecko) Chrome/119.0.0.0 Safari/537.36 Edg/119.0.0.0" etag="H8VbHL5LEMtnHaCn7RPD" version="22.1.5" type="device">
  <diagram name="Page-1" id="PqWud5pCHBYJRRVBMhQ1">
    <mxGraphModel dx="3077" dy="2364" grid="1" gridSize="10" guides="1" tooltips="1" connect="1" arrows="1" fold="1" page="1" pageScale="1" pageWidth="850" pageHeight="1100" math="0" shadow="0">
      <root>
        <mxCell id="0" />
        <mxCell id="1" parent="0" />
        <mxCell id="fRubifOLtkIRVd_WmFIN-2" style="edgeStyle=orthogonalEdgeStyle;rounded=0;orthogonalLoop=1;jettySize=auto;html=1;exitX=0.5;exitY=1;exitDx=0;exitDy=0;" edge="1" parent="1" source="fRubifOLtkIRVd_WmFIN-1">
          <mxGeometry relative="1" as="geometry">
            <mxPoint x="425" y="120" as="targetPoint" />
          </mxGeometry>
        </mxCell>
        <mxCell id="fRubifOLtkIRVd_WmFIN-1" value="" style="ellipse;html=1;shape=endState;fillColor=#000000;strokeColor=#ff0000;" vertex="1" parent="1">
          <mxGeometry x="410" y="30" width="30" height="30" as="geometry" />
        </mxCell>
        <mxCell id="fRubifOLtkIRVd_WmFIN-6" style="edgeStyle=orthogonalEdgeStyle;rounded=0;orthogonalLoop=1;jettySize=auto;html=1;exitX=0.5;exitY=1;exitDx=0;exitDy=0;" edge="1" parent="1" source="fRubifOLtkIRVd_WmFIN-3">
          <mxGeometry relative="1" as="geometry">
            <mxPoint x="425" y="220" as="targetPoint" />
          </mxGeometry>
        </mxCell>
        <mxCell id="fRubifOLtkIRVd_WmFIN-3" value="View Admin Dashboard" style="rounded=1;whiteSpace=wrap;html=1;" vertex="1" parent="1">
          <mxGeometry x="365" y="120" width="120" height="40" as="geometry" />
        </mxCell>
        <mxCell id="fRubifOLtkIRVd_WmFIN-7" value="" style="shape=line;html=1;strokeWidth=6;strokeColor=#ff0000;" vertex="1" parent="1">
          <mxGeometry x="215" y="220" width="410" height="10" as="geometry" />
        </mxCell>
        <mxCell id="fRubifOLtkIRVd_WmFIN-8" value="" style="edgeStyle=orthogonalEdgeStyle;html=1;verticalAlign=bottom;endArrow=open;endSize=8;strokeColor=#ff0000;rounded=0;" edge="1" parent="1">
          <mxGeometry relative="1" as="geometry">
            <mxPoint x="234" y="300" as="targetPoint" />
            <mxPoint x="234" y="230" as="sourcePoint" />
          </mxGeometry>
        </mxCell>
        <mxCell id="fRubifOLtkIRVd_WmFIN-15" style="edgeStyle=orthogonalEdgeStyle;rounded=0;orthogonalLoop=1;jettySize=auto;html=1;exitX=0.5;exitY=1;exitDx=0;exitDy=0;" edge="1" parent="1" source="fRubifOLtkIRVd_WmFIN-9">
          <mxGeometry relative="1" as="geometry">
            <mxPoint x="235.33333333333337" y="400" as="targetPoint" />
          </mxGeometry>
        </mxCell>
        <mxCell id="fRubifOLtkIRVd_WmFIN-9" value="View Users List" style="rounded=1;whiteSpace=wrap;html=1;" vertex="1" parent="1">
          <mxGeometry x="175" y="300" width="120" height="40" as="geometry" />
        </mxCell>
        <mxCell id="fRubifOLtkIRVd_WmFIN-38" style="edgeStyle=orthogonalEdgeStyle;rounded=0;orthogonalLoop=1;jettySize=auto;html=1;exitX=0.5;exitY=1;exitDx=0;exitDy=0;entryX=0.5;entryY=0.232;entryDx=0;entryDy=0;entryPerimeter=0;" edge="1" parent="1" source="fRubifOLtkIRVd_WmFIN-10" target="fRubifOLtkIRVd_WmFIN-39">
          <mxGeometry relative="1" as="geometry">
            <mxPoint x="600" y="550" as="targetPoint" />
          </mxGeometry>
        </mxCell>
        <mxCell id="fRubifOLtkIRVd_WmFIN-10" value="View Support Control" style="rounded=1;whiteSpace=wrap;html=1;" vertex="1" parent="1">
          <mxGeometry x="365" y="300" width="120" height="40" as="geometry" />
        </mxCell>
        <mxCell id="fRubifOLtkIRVd_WmFIN-11" value="" style="edgeStyle=orthogonalEdgeStyle;html=1;verticalAlign=bottom;endArrow=open;endSize=8;strokeColor=#ff0000;rounded=0;" edge="1" parent="1">
          <mxGeometry relative="1" as="geometry">
            <mxPoint x="425" y="299" as="targetPoint" />
            <mxPoint x="425" y="229" as="sourcePoint" />
          </mxGeometry>
        </mxCell>
        <mxCell id="fRubifOLtkIRVd_WmFIN-73" style="edgeStyle=orthogonalEdgeStyle;rounded=0;orthogonalLoop=1;jettySize=auto;html=1;exitX=1;exitY=0.5;exitDx=0;exitDy=0;" edge="1" parent="1" source="fRubifOLtkIRVd_WmFIN-13">
          <mxGeometry relative="1" as="geometry">
            <mxPoint x="790" y="320" as="targetPoint" />
          </mxGeometry>
        </mxCell>
        <mxCell id="fRubifOLtkIRVd_WmFIN-13" value="View Publishing Requests" style="rounded=1;whiteSpace=wrap;html=1;" vertex="1" parent="1">
          <mxGeometry x="545" y="300" width="120" height="40" as="geometry" />
        </mxCell>
        <mxCell id="fRubifOLtkIRVd_WmFIN-14" value="" style="edgeStyle=orthogonalEdgeStyle;html=1;verticalAlign=bottom;endArrow=open;endSize=8;strokeColor=#ff0000;rounded=0;" edge="1" parent="1">
          <mxGeometry relative="1" as="geometry">
            <mxPoint x="604.8199999999999" y="300" as="targetPoint" />
            <mxPoint x="604.8199999999999" y="230" as="sourcePoint" />
          </mxGeometry>
        </mxCell>
        <mxCell id="fRubifOLtkIRVd_WmFIN-17" style="edgeStyle=orthogonalEdgeStyle;rounded=0;orthogonalLoop=1;jettySize=auto;html=1;exitX=0;exitY=0.5;exitDx=0;exitDy=0;entryX=0;entryY=0.5;entryDx=0;entryDy=0;" edge="1" parent="1" source="fRubifOLtkIRVd_WmFIN-16" target="fRubifOLtkIRVd_WmFIN-9">
          <mxGeometry relative="1" as="geometry">
            <Array as="points">
              <mxPoint x="130" y="440" />
              <mxPoint x="130" y="320" />
            </Array>
          </mxGeometry>
        </mxCell>
        <mxCell id="fRubifOLtkIRVd_WmFIN-18" style="edgeStyle=orthogonalEdgeStyle;rounded=0;orthogonalLoop=1;jettySize=auto;html=1;exitX=1;exitY=0.5;exitDx=0;exitDy=0;" edge="1" parent="1" source="fRubifOLtkIRVd_WmFIN-16">
          <mxGeometry relative="1" as="geometry">
            <mxPoint x="300" y="550" as="targetPoint" />
          </mxGeometry>
        </mxCell>
        <mxCell id="fRubifOLtkIRVd_WmFIN-16" value="if user is selected" style="rhombus;whiteSpace=wrap;html=1;" vertex="1" parent="1">
          <mxGeometry x="195" y="400" width="80" height="80" as="geometry" />
        </mxCell>
        <mxCell id="fRubifOLtkIRVd_WmFIN-20" style="edgeStyle=orthogonalEdgeStyle;rounded=0;orthogonalLoop=1;jettySize=auto;html=1;exitX=0.5;exitY=1;exitDx=0;exitDy=0;" edge="1" parent="1" source="fRubifOLtkIRVd_WmFIN-19">
          <mxGeometry relative="1" as="geometry">
            <mxPoint x="302" y="640" as="targetPoint" />
          </mxGeometry>
        </mxCell>
        <mxCell id="fRubifOLtkIRVd_WmFIN-19" value="View User Details" style="rounded=1;whiteSpace=wrap;html=1;" vertex="1" parent="1">
          <mxGeometry x="242" y="550" width="120" height="40" as="geometry" />
        </mxCell>
        <mxCell id="fRubifOLtkIRVd_WmFIN-22" style="edgeStyle=orthogonalEdgeStyle;rounded=0;orthogonalLoop=1;jettySize=auto;html=1;exitX=0;exitY=0.5;exitDx=0;exitDy=0;entryX=1;entryY=0.5;entryDx=0;entryDy=0;" edge="1" parent="1" source="fRubifOLtkIRVd_WmFIN-21" target="fRubifOLtkIRVd_WmFIN-28">
          <mxGeometry relative="1" as="geometry">
            <mxPoint x="170" y="681" as="targetPoint" />
          </mxGeometry>
        </mxCell>
        <mxCell id="fRubifOLtkIRVd_WmFIN-23" style="edgeStyle=orthogonalEdgeStyle;rounded=0;orthogonalLoop=1;jettySize=auto;html=1;exitX=1;exitY=0.5;exitDx=0;exitDy=0;entryX=0.5;entryY=0;entryDx=0;entryDy=0;" edge="1" parent="1" source="fRubifOLtkIRVd_WmFIN-21" target="fRubifOLtkIRVd_WmFIN-35">
          <mxGeometry relative="1" as="geometry">
            <mxPoint x="370" y="772.6666666666666" as="targetPoint" />
          </mxGeometry>
        </mxCell>
        <mxCell id="fRubifOLtkIRVd_WmFIN-21" value="if delete is selected" style="rhombus;whiteSpace=wrap;html=1;" vertex="1" parent="1">
          <mxGeometry x="262" y="641" width="80" height="80" as="geometry" />
        </mxCell>
        <mxCell id="fRubifOLtkIRVd_WmFIN-28" value="" style="ellipse;html=1;shape=endState;fillColor=#000000;strokeColor=#ff0000;" vertex="1" parent="1">
          <mxGeometry x="135" y="695" width="30" height="30" as="geometry" />
        </mxCell>
        <mxCell id="fRubifOLtkIRVd_WmFIN-29" value="no" style="text;html=1;strokeColor=none;fillColor=none;align=center;verticalAlign=middle;whiteSpace=wrap;rounded=0;" vertex="1" parent="1">
          <mxGeometry x="140" y="410" width="60" height="30" as="geometry" />
        </mxCell>
        <mxCell id="fRubifOLtkIRVd_WmFIN-31" value="yes" style="text;html=1;strokeColor=none;fillColor=none;align=center;verticalAlign=middle;whiteSpace=wrap;rounded=0;" vertex="1" parent="1">
          <mxGeometry x="260" y="410" width="60" height="30" as="geometry" />
        </mxCell>
        <mxCell id="fRubifOLtkIRVd_WmFIN-32" value="yes" style="text;html=1;strokeColor=none;fillColor=none;align=center;verticalAlign=middle;whiteSpace=wrap;rounded=0;" vertex="1" parent="1">
          <mxGeometry x="330" y="650" width="60" height="30" as="geometry" />
        </mxCell>
        <mxCell id="fRubifOLtkIRVd_WmFIN-33" value="no" style="text;html=1;strokeColor=none;fillColor=none;align=center;verticalAlign=middle;whiteSpace=wrap;rounded=0;" vertex="1" parent="1">
          <mxGeometry x="210" y="650" width="60" height="30" as="geometry" />
        </mxCell>
        <mxCell id="fRubifOLtkIRVd_WmFIN-48" style="edgeStyle=orthogonalEdgeStyle;rounded=0;orthogonalLoop=1;jettySize=auto;html=1;exitX=0;exitY=0.5;exitDx=0;exitDy=0;entryX=0.5;entryY=1;entryDx=0;entryDy=0;" edge="1" parent="1" source="fRubifOLtkIRVd_WmFIN-35" target="fRubifOLtkIRVd_WmFIN-28">
          <mxGeometry relative="1" as="geometry" />
        </mxCell>
        <mxCell id="fRubifOLtkIRVd_WmFIN-35" value="Save DB" style="rounded=1;whiteSpace=wrap;html=1;" vertex="1" parent="1">
          <mxGeometry x="240" y="800" width="120" height="40" as="geometry" />
        </mxCell>
        <mxCell id="fRubifOLtkIRVd_WmFIN-39" value="" style="shape=line;html=1;strokeWidth=6;strokeColor=#ff0000;" vertex="1" parent="1">
          <mxGeometry x="500" y="550" width="210" height="10" as="geometry" />
        </mxCell>
        <mxCell id="fRubifOLtkIRVd_WmFIN-40" value="" style="edgeStyle=orthogonalEdgeStyle;html=1;verticalAlign=bottom;endArrow=open;endSize=8;strokeColor=#ff0000;rounded=0;" edge="1" parent="1">
          <mxGeometry relative="1" as="geometry">
            <mxPoint x="509" y="630" as="targetPoint" />
            <mxPoint x="509.02857142857147" y="560" as="sourcePoint" />
          </mxGeometry>
        </mxCell>
        <mxCell id="fRubifOLtkIRVd_WmFIN-42" style="edgeStyle=orthogonalEdgeStyle;rounded=0;orthogonalLoop=1;jettySize=auto;html=1;exitX=0.5;exitY=1;exitDx=0;exitDy=0;" edge="1" parent="1" source="fRubifOLtkIRVd_WmFIN-41">
          <mxGeometry relative="1" as="geometry">
            <mxPoint x="509.7692307692307" y="710" as="targetPoint" />
          </mxGeometry>
        </mxCell>
        <mxCell id="fRubifOLtkIRVd_WmFIN-41" value="Add support" style="rounded=1;whiteSpace=wrap;html=1;" vertex="1" parent="1">
          <mxGeometry x="450" y="630" width="120" height="40" as="geometry" />
        </mxCell>
        <mxCell id="fRubifOLtkIRVd_WmFIN-44" style="edgeStyle=orthogonalEdgeStyle;rounded=0;orthogonalLoop=1;jettySize=auto;html=1;exitX=0.5;exitY=1;exitDx=0;exitDy=0;" edge="1" parent="1" source="fRubifOLtkIRVd_WmFIN-43">
          <mxGeometry relative="1" as="geometry">
            <mxPoint x="509.7692307692307" y="800" as="targetPoint" />
          </mxGeometry>
        </mxCell>
        <mxCell id="fRubifOLtkIRVd_WmFIN-43" value="Fill support details" style="rounded=1;whiteSpace=wrap;html=1;" vertex="1" parent="1">
          <mxGeometry x="450" y="710" width="120" height="40" as="geometry" />
        </mxCell>
        <mxCell id="fRubifOLtkIRVd_WmFIN-46" style="edgeStyle=orthogonalEdgeStyle;rounded=0;orthogonalLoop=1;jettySize=auto;html=1;exitX=0.5;exitY=1;exitDx=0;exitDy=0;" edge="1" parent="1" source="fRubifOLtkIRVd_WmFIN-45" target="fRubifOLtkIRVd_WmFIN-47">
          <mxGeometry relative="1" as="geometry">
            <mxPoint x="509.7692307692307" y="890" as="targetPoint" />
          </mxGeometry>
        </mxCell>
        <mxCell id="fRubifOLtkIRVd_WmFIN-45" value="Save DB" style="rounded=1;whiteSpace=wrap;html=1;" vertex="1" parent="1">
          <mxGeometry x="450" y="800" width="120" height="40" as="geometry" />
        </mxCell>
        <mxCell id="fRubifOLtkIRVd_WmFIN-47" value="" style="ellipse;html=1;shape=endState;fillColor=#000000;strokeColor=#ff0000;" vertex="1" parent="1">
          <mxGeometry x="494.7692307692307" y="875" width="30" height="30" as="geometry" />
        </mxCell>
        <mxCell id="fRubifOLtkIRVd_WmFIN-51" style="edgeStyle=orthogonalEdgeStyle;rounded=0;orthogonalLoop=1;jettySize=auto;html=1;exitX=0.5;exitY=1;exitDx=0;exitDy=0;" edge="1" parent="1" source="fRubifOLtkIRVd_WmFIN-49">
          <mxGeometry relative="1" as="geometry">
            <mxPoint x="700" y="700" as="targetPoint" />
          </mxGeometry>
        </mxCell>
        <mxCell id="fRubifOLtkIRVd_WmFIN-49" value="Browse support list" style="rounded=1;whiteSpace=wrap;html=1;" vertex="1" parent="1">
          <mxGeometry x="640" y="630" width="120" height="40" as="geometry" />
        </mxCell>
        <mxCell id="fRubifOLtkIRVd_WmFIN-50" value="" style="edgeStyle=orthogonalEdgeStyle;html=1;verticalAlign=bottom;endArrow=open;endSize=8;strokeColor=#ff0000;rounded=0;" edge="1" parent="1">
          <mxGeometry relative="1" as="geometry">
            <mxPoint x="700" y="629" as="targetPoint" />
            <mxPoint x="700.0285714285715" y="559" as="sourcePoint" />
          </mxGeometry>
        </mxCell>
        <mxCell id="fRubifOLtkIRVd_WmFIN-54" style="edgeStyle=orthogonalEdgeStyle;rounded=0;orthogonalLoop=1;jettySize=auto;html=1;exitX=0;exitY=0.5;exitDx=0;exitDy=0;entryX=0;entryY=0.5;entryDx=0;entryDy=0;" edge="1" parent="1" source="fRubifOLtkIRVd_WmFIN-53" target="fRubifOLtkIRVd_WmFIN-49">
          <mxGeometry relative="1" as="geometry">
            <Array as="points">
              <mxPoint x="610" y="741" />
              <mxPoint x="610" y="650" />
            </Array>
          </mxGeometry>
        </mxCell>
        <mxCell id="fRubifOLtkIRVd_WmFIN-55" style="edgeStyle=orthogonalEdgeStyle;rounded=0;orthogonalLoop=1;jettySize=auto;html=1;exitX=0.5;exitY=1;exitDx=0;exitDy=0;" edge="1" parent="1" source="fRubifOLtkIRVd_WmFIN-53">
          <mxGeometry relative="1" as="geometry">
            <mxPoint x="700.1428571428571" y="820" as="targetPoint" />
          </mxGeometry>
        </mxCell>
        <mxCell id="fRubifOLtkIRVd_WmFIN-53" value="if &lt;br&gt;support is selected" style="rhombus;whiteSpace=wrap;html=1;" vertex="1" parent="1">
          <mxGeometry x="660" y="701" width="80" height="80" as="geometry" />
        </mxCell>
        <mxCell id="fRubifOLtkIRVd_WmFIN-57" style="edgeStyle=orthogonalEdgeStyle;rounded=0;orthogonalLoop=1;jettySize=auto;html=1;exitX=0.5;exitY=1;exitDx=0;exitDy=0;" edge="1" parent="1" source="fRubifOLtkIRVd_WmFIN-56">
          <mxGeometry relative="1" as="geometry">
            <mxPoint x="700.1428571428571" y="900" as="targetPoint" />
          </mxGeometry>
        </mxCell>
        <mxCell id="fRubifOLtkIRVd_WmFIN-56" value="View support details" style="rounded=1;whiteSpace=wrap;html=1;" vertex="1" parent="1">
          <mxGeometry x="640" y="820" width="120" height="40" as="geometry" />
        </mxCell>
        <mxCell id="fRubifOLtkIRVd_WmFIN-59" value="" style="shape=line;html=1;strokeWidth=6;strokeColor=#ff0000;" vertex="1" parent="1">
          <mxGeometry x="569" y="900" width="260" height="10" as="geometry" />
        </mxCell>
        <mxCell id="fRubifOLtkIRVd_WmFIN-60" value="" style="edgeStyle=orthogonalEdgeStyle;html=1;verticalAlign=bottom;endArrow=open;endSize=8;strokeColor=#ff0000;rounded=0;" edge="1" parent="1">
          <mxGeometry relative="1" as="geometry">
            <mxPoint x="597" y="980" as="targetPoint" />
            <mxPoint x="597" y="910" as="sourcePoint" />
          </mxGeometry>
        </mxCell>
        <mxCell id="fRubifOLtkIRVd_WmFIN-62" style="edgeStyle=orthogonalEdgeStyle;rounded=0;orthogonalLoop=1;jettySize=auto;html=1;exitX=0.5;exitY=1;exitDx=0;exitDy=0;" edge="1" parent="1" source="fRubifOLtkIRVd_WmFIN-61">
          <mxGeometry relative="1" as="geometry">
            <mxPoint x="598.6896551724137" y="1060" as="targetPoint" />
          </mxGeometry>
        </mxCell>
        <mxCell id="fRubifOLtkIRVd_WmFIN-61" value="Update support" style="rounded=1;whiteSpace=wrap;html=1;" vertex="1" parent="1">
          <mxGeometry x="539" y="980" width="120" height="40" as="geometry" />
        </mxCell>
        <mxCell id="fRubifOLtkIRVd_WmFIN-64" style="edgeStyle=orthogonalEdgeStyle;rounded=0;orthogonalLoop=1;jettySize=auto;html=1;exitX=0.5;exitY=1;exitDx=0;exitDy=0;" edge="1" parent="1" source="fRubifOLtkIRVd_WmFIN-63">
          <mxGeometry relative="1" as="geometry">
            <mxPoint x="599" y="1140" as="targetPoint" />
          </mxGeometry>
        </mxCell>
        <mxCell id="fRubifOLtkIRVd_WmFIN-63" value="Fill updating details" style="rounded=1;whiteSpace=wrap;html=1;" vertex="1" parent="1">
          <mxGeometry x="539" y="1060" width="120" height="40" as="geometry" />
        </mxCell>
        <mxCell id="fRubifOLtkIRVd_WmFIN-66" style="edgeStyle=orthogonalEdgeStyle;rounded=0;orthogonalLoop=1;jettySize=auto;html=1;exitX=0.5;exitY=1;exitDx=0;exitDy=0;" edge="1" parent="1" source="fRubifOLtkIRVd_WmFIN-65" target="fRubifOLtkIRVd_WmFIN-67">
          <mxGeometry relative="1" as="geometry">
            <mxPoint x="599" y="1220.8" as="targetPoint" />
          </mxGeometry>
        </mxCell>
        <mxCell id="fRubifOLtkIRVd_WmFIN-65" value="Save DB" style="rounded=1;whiteSpace=wrap;html=1;" vertex="1" parent="1">
          <mxGeometry x="539" y="1140" width="120" height="40" as="geometry" />
        </mxCell>
        <mxCell id="fRubifOLtkIRVd_WmFIN-67" value="" style="ellipse;html=1;shape=endState;fillColor=#000000;strokeColor=#ff0000;" vertex="1" parent="1">
          <mxGeometry x="584" y="1205.8" width="30" height="30" as="geometry" />
        </mxCell>
        <mxCell id="fRubifOLtkIRVd_WmFIN-70" style="edgeStyle=orthogonalEdgeStyle;rounded=0;orthogonalLoop=1;jettySize=auto;html=1;exitX=0.5;exitY=1;exitDx=0;exitDy=0;" edge="1" parent="1" source="fRubifOLtkIRVd_WmFIN-68">
          <mxGeometry relative="1" as="geometry">
            <mxPoint x="799" y="1060" as="targetPoint" />
          </mxGeometry>
        </mxCell>
        <mxCell id="fRubifOLtkIRVd_WmFIN-68" value="Delete support" style="rounded=1;whiteSpace=wrap;html=1;" vertex="1" parent="1">
          <mxGeometry x="739" y="980" width="120" height="40" as="geometry" />
        </mxCell>
        <mxCell id="fRubifOLtkIRVd_WmFIN-69" value="" style="edgeStyle=orthogonalEdgeStyle;html=1;verticalAlign=bottom;endArrow=open;endSize=8;strokeColor=#ff0000;rounded=0;" edge="1" parent="1">
          <mxGeometry relative="1" as="geometry">
            <mxPoint x="800" y="979" as="targetPoint" />
            <mxPoint x="800" y="909" as="sourcePoint" />
          </mxGeometry>
        </mxCell>
        <mxCell id="fRubifOLtkIRVd_WmFIN-72" style="edgeStyle=orthogonalEdgeStyle;rounded=0;orthogonalLoop=1;jettySize=auto;html=1;exitX=0.5;exitY=1;exitDx=0;exitDy=0;entryX=1;entryY=0.5;entryDx=0;entryDy=0;" edge="1" parent="1" source="fRubifOLtkIRVd_WmFIN-71" target="fRubifOLtkIRVd_WmFIN-67">
          <mxGeometry relative="1" as="geometry" />
        </mxCell>
        <mxCell id="fRubifOLtkIRVd_WmFIN-71" value="Save DB" style="rounded=1;whiteSpace=wrap;html=1;" vertex="1" parent="1">
          <mxGeometry x="739" y="1060" width="120" height="40" as="geometry" />
        </mxCell>
        <mxCell id="fRubifOLtkIRVd_WmFIN-75" style="edgeStyle=orthogonalEdgeStyle;rounded=0;orthogonalLoop=1;jettySize=auto;html=1;exitX=1;exitY=0.5;exitDx=0;exitDy=0;" edge="1" parent="1" source="fRubifOLtkIRVd_WmFIN-74">
          <mxGeometry relative="1" as="geometry">
            <mxPoint x="970.0000000000002" y="320.25" as="targetPoint" />
          </mxGeometry>
        </mxCell>
        <mxCell id="fRubifOLtkIRVd_WmFIN-74" value="if request is selected" style="rhombus;whiteSpace=wrap;html=1;" vertex="1" parent="1">
          <mxGeometry x="790" y="280" width="80" height="80" as="geometry" />
        </mxCell>
        <mxCell id="fRubifOLtkIRVd_WmFIN-76" style="edgeStyle=orthogonalEdgeStyle;rounded=0;orthogonalLoop=1;jettySize=auto;html=1;exitX=0.5;exitY=1;exitDx=0;exitDy=0;entryX=0.45;entryY=1.009;entryDx=0;entryDy=0;entryPerimeter=0;" edge="1" parent="1" source="fRubifOLtkIRVd_WmFIN-74" target="fRubifOLtkIRVd_WmFIN-13">
          <mxGeometry relative="1" as="geometry" />
        </mxCell>
        <mxCell id="fRubifOLtkIRVd_WmFIN-78" style="edgeStyle=orthogonalEdgeStyle;rounded=0;orthogonalLoop=1;jettySize=auto;html=1;exitX=0.5;exitY=1;exitDx=0;exitDy=0;" edge="1" parent="1" source="fRubifOLtkIRVd_WmFIN-77">
          <mxGeometry relative="1" as="geometry">
            <mxPoint x="1029.9090909090908" y="410" as="targetPoint" />
          </mxGeometry>
        </mxCell>
        <mxCell id="fRubifOLtkIRVd_WmFIN-77" value="View Request details" style="rounded=1;whiteSpace=wrap;html=1;" vertex="1" parent="1">
          <mxGeometry x="970" y="300" width="120" height="40" as="geometry" />
        </mxCell>
        <mxCell id="fRubifOLtkIRVd_WmFIN-81" style="edgeStyle=orthogonalEdgeStyle;rounded=0;orthogonalLoop=1;jettySize=auto;html=1;exitX=0;exitY=0.5;exitDx=0;exitDy=0;" edge="1" parent="1" source="fRubifOLtkIRVd_WmFIN-80">
          <mxGeometry relative="1" as="geometry">
            <mxPoint x="930" y="510" as="targetPoint" />
          </mxGeometry>
        </mxCell>
        <mxCell id="fRubifOLtkIRVd_WmFIN-82" style="edgeStyle=orthogonalEdgeStyle;rounded=0;orthogonalLoop=1;jettySize=auto;html=1;exitX=1;exitY=0.5;exitDx=0;exitDy=0;" edge="1" parent="1" source="fRubifOLtkIRVd_WmFIN-80">
          <mxGeometry relative="1" as="geometry">
            <mxPoint x="1130.0000000000002" y="510" as="targetPoint" />
          </mxGeometry>
        </mxCell>
        <mxCell id="fRubifOLtkIRVd_WmFIN-80" value="if request accepted" style="rhombus;whiteSpace=wrap;html=1;" vertex="1" parent="1">
          <mxGeometry x="990" y="410" width="80" height="80" as="geometry" />
        </mxCell>
        <mxCell id="fRubifOLtkIRVd_WmFIN-84" style="edgeStyle=orthogonalEdgeStyle;rounded=0;orthogonalLoop=1;jettySize=auto;html=1;exitX=0.5;exitY=1;exitDx=0;exitDy=0;" edge="1" parent="1" source="fRubifOLtkIRVd_WmFIN-83" target="fRubifOLtkIRVd_WmFIN-86">
          <mxGeometry relative="1" as="geometry">
            <mxPoint x="929.9090909090908" y="600" as="targetPoint" />
          </mxGeometry>
        </mxCell>
        <mxCell id="fRubifOLtkIRVd_WmFIN-83" value="Send Accepted to user and Save DB" style="rounded=1;whiteSpace=wrap;html=1;" vertex="1" parent="1">
          <mxGeometry x="870" y="510" width="120" height="40" as="geometry" />
        </mxCell>
        <mxCell id="fRubifOLtkIRVd_WmFIN-86" value="" style="ellipse;html=1;shape=endState;fillColor=#000000;strokeColor=#ff0000;" vertex="1" parent="1">
          <mxGeometry x="914.9090909090908" y="585" width="30" height="30" as="geometry" />
        </mxCell>
        <mxCell id="fRubifOLtkIRVd_WmFIN-88" style="edgeStyle=orthogonalEdgeStyle;rounded=0;orthogonalLoop=1;jettySize=auto;html=1;exitX=0.5;exitY=1;exitDx=0;exitDy=0;entryX=1;entryY=0.5;entryDx=0;entryDy=0;" edge="1" parent="1" source="fRubifOLtkIRVd_WmFIN-87" target="fRubifOLtkIRVd_WmFIN-86">
          <mxGeometry relative="1" as="geometry" />
        </mxCell>
        <mxCell id="fRubifOLtkIRVd_WmFIN-87" value="Send Rejected to user" style="rounded=1;whiteSpace=wrap;html=1;" vertex="1" parent="1">
          <mxGeometry x="1070" y="510" width="120" height="40" as="geometry" />
        </mxCell>
        <mxCell id="fRubifOLtkIRVd_WmFIN-89" value="yes" style="text;html=1;strokeColor=none;fillColor=none;align=center;verticalAlign=middle;whiteSpace=wrap;rounded=0;" vertex="1" parent="1">
          <mxGeometry x="930" y="420" width="60" height="30" as="geometry" />
        </mxCell>
        <mxCell id="fRubifOLtkIRVd_WmFIN-90" value="no" style="text;html=1;strokeColor=none;fillColor=none;align=center;verticalAlign=middle;whiteSpace=wrap;rounded=0;" vertex="1" parent="1">
          <mxGeometry x="1070" y="420" width="60" height="30" as="geometry" />
        </mxCell>
        <mxCell id="fRubifOLtkIRVd_WmFIN-91" value="yes" style="text;html=1;strokeColor=none;fillColor=none;align=center;verticalAlign=middle;whiteSpace=wrap;rounded=0;" vertex="1" parent="1">
          <mxGeometry x="870" y="290" width="60" height="30" as="geometry" />
        </mxCell>
        <mxCell id="fRubifOLtkIRVd_WmFIN-92" value="no" style="text;html=1;strokeColor=none;fillColor=none;align=center;verticalAlign=middle;whiteSpace=wrap;rounded=0;" vertex="1" parent="1">
          <mxGeometry x="760" y="350" width="60" height="30" as="geometry" />
        </mxCell>
        <mxCell id="fRubifOLtkIRVd_WmFIN-93" value="yes" style="text;html=1;strokeColor=none;fillColor=none;align=center;verticalAlign=middle;whiteSpace=wrap;rounded=0;" vertex="1" parent="1">
          <mxGeometry x="700" y="781" width="60" height="30" as="geometry" />
        </mxCell>
        <mxCell id="fRubifOLtkIRVd_WmFIN-94" value="no" style="text;html=1;strokeColor=none;fillColor=none;align=center;verticalAlign=middle;whiteSpace=wrap;rounded=0;" vertex="1" parent="1">
          <mxGeometry x="615" y="710" width="60" height="30" as="geometry" />
        </mxCell>
        <mxCell id="fRubifOLtkIRVd_WmFIN-95" value="" style="rounded=0;whiteSpace=wrap;html=1;fillColor=none;" vertex="1" parent="1">
          <mxGeometry x="-30" y="-20" width="1300" height="1340" as="geometry" />
        </mxCell>
      </root>
    </mxGraphModel>
  </diagram>
</mxfile>
